<svg width="13" height="13" viewBox="0 0 13 13" fill="none" xmlns="http://www.w3.org/2000/svg">
<path d="M6.5 1.37952C8.15663 1.37952 8.38253 1.37952 9.06024 1.37952C9.66265 1.37952 9.96386 1.53012 10.1898 1.60542C10.491 1.75602 10.7169 1.83133 10.9428 2.05723C11.1687 2.28313 11.3193 2.50904 11.3946 2.81024C11.4699 3.03615 11.5452 3.33735 11.6205 3.93976C11.6205 4.61747 11.6205 4.76807 11.6205 6.5C11.6205 8.23193 11.6205 8.38253 11.6205 9.06024C11.6205 9.66265 11.4699 9.96386 11.3946 10.1898C11.244 10.491 11.1687 10.7169 10.9428 10.9428C10.7169 11.1687 10.491 11.3193 10.1898 11.3946C9.96386 11.4699 9.66265 11.5452 9.06024 11.6205C8.38253 11.6205 8.23193 11.6205 6.5 11.6205C4.76807 11.6205 4.61747 11.6205 3.93976 11.6205C3.33735 11.6205 3.03615 11.4699 2.81024 11.3946C2.50904 11.244 2.28313 11.1687 2.05723 10.9428C1.83133 10.7169 1.68072 10.491 1.60542 10.1898C1.53012 9.96386 1.45482 9.66265 1.37952 9.06024C1.37952 8.38253 1.37952 8.23193 1.37952 6.5C1.37952 4.76807 1.37952 4.61747 1.37952 3.93976C1.37952 3.33735 1.53012 3.03615 1.60542 2.81024C1.75602 2.50904 1.83133 2.28313 2.05723 2.05723C2.28313 1.83133 2.50904 1.68072 2.81024 1.60542C3.03615 1.53012 3.33735 1.45482 3.93976 1.37952C4.61747 1.37952 4.84337 1.37952 6.5 1.37952ZM6.5 0.25C4.76807 0.25 4.61747 0.25 3.93976 0.25C3.26205 0.25 2.81024 0.400603 2.43374 0.551205C2.05723 0.701808 1.68072 0.927711 1.30422 1.30422C0.927711 1.68072 0.777109 1.98193 0.551205 2.43374C0.400603 2.81024 0.325301 3.26205 0.25 3.93976C0.25 4.61747 0.25 4.84337 0.25 6.5C0.25 8.23193 0.25 8.38253 0.25 9.06024C0.25 9.73795 0.400603 10.1898 0.551205 10.5663C0.701808 10.9428 0.927711 11.3193 1.30422 11.6958C1.68072 12.0723 1.98193 12.2229 2.43374 12.4488C2.81024 12.5994 3.26205 12.6747 3.93976 12.75C4.61747 12.75 4.84337 12.75 6.5 12.75C8.15663 12.75 8.38253 12.75 9.06024 12.75C9.73795 12.75 10.1898 12.5994 10.5663 12.4488C10.9428 12.2982 11.3193 12.0723 11.6958 11.6958C12.0723 11.3193 12.2229 11.0181 12.4488 10.5663C12.5994 10.1898 12.6747 9.73795 12.75 9.06024C12.75 8.38253 12.75 8.15663 12.75 6.5C12.75 4.84337 12.75 4.61747 12.75 3.93976C12.75 3.26205 12.5994 2.81024 12.4488 2.43374C12.2982 2.05723 12.0723 1.68072 11.6958 1.30422C11.3193 0.927711 11.0181 0.777109 10.5663 0.551205C10.1898 0.400603 9.73795 0.325301 9.06024 0.25C8.38253 0.25 8.23193 0.25 6.5 0.25Z" fill="black"/>
<path d="M6.5 3.26205C4.69277 3.26205 3.26205 4.69277 3.26205 6.5C3.26205 8.30723 4.69277 9.73795 6.5 9.73795C8.30723 9.73795 9.73795 8.30723 9.73795 6.5C9.73795 4.69277 8.30723 3.26205 6.5 3.26205ZM6.5 8.60843C5.37048 8.60843 4.39157 7.70482 4.39157 6.5C4.39157 5.37048 5.29518 4.39157 6.5 4.39157C7.62952 4.39157 8.60843 5.29518 8.60843 6.5C8.60843 7.62952 7.62952 8.60843 6.5 8.60843Z" fill="black"/>
<path d="M9.81325 3.93976C10.2291 3.93976 10.5663 3.60262 10.5663 3.18675C10.5663 2.77087 10.2291 2.43374 9.81325 2.43374C9.39738 2.43374 9.06024 2.77087 9.06024 3.18675C9.06024 3.60262 9.39738 3.93976 9.81325 3.93976Z" fill="black"/>
</svg>
